<?xml version="1.0" standalone="no"?>
<!DOCTYPE svg PUBLIC "-//W3C//DTD SVG 20010904//EN"
 "http://www.w3.org/TR/2001/REC-SVG-20010904/DTD/svg10.dtd">
<svg version="1.0" xmlns="http://www.w3.org/2000/svg"
 width="2816.000000pt" height="1536.000000pt" viewBox="0 0 2816.000000 1536.000000"
 preserveAspectRatio="xMidYMid meet">

<g transform="translate(0.000000,1536.000000) scale(0.100000,-0.100000)"
fill="#000000" stroke="none">
<path d="M10620 12664 c-239 -25 -447 -73 -700 -160 -474 -162 -910 -429
-1247 -763 -325 -322 -579 -698 -761 -1127 -234 -552 -324 -1181 -215 -1513
49 -151 112 -228 230 -284 125 -58 224 -49 411 39 112 52 154 55 257 19 231
-81 417 -331 418 -560 0 -100 -12 -160 -73 -350 -27 -82 -56 -179 -65 -215
-24 -91 -24 -255 -1 -344 72 -272 234 -468 543 -657 97 -59 127 -68 164 -49
13 7 19 7 19 0 0 -5 -7 -10 -15 -10 -27 0 -16 -18 19 -31 l33 -12 7 -126 c3
-69 8 -171 12 -226 l5 -100 -73 -145 c-50 -97 -93 -203 -132 -320 -105 -316
-137 -404 -196 -521 -102 -204 -203 -353 -379 -558 -288 -338 -656 -560 -1186
-717 -169 -49 -284 -72 -485 -94 -182 -20 -209 -27 -325 -81 -58 -27 -85 -33
-160 -37 l-89 -5 65 56 c113 95 199 214 249 342 156 400 254 559 601 975 279
334 380 509 383 665 1 91 -22 138 -89 180 -46 29 -53 30 -154 29 -169 -2 -335
-59 -766 -266 -546 -262 -660 -299 -1095 -358 -85 -12 -188 -32 -228 -46 -40
-13 -74 -24 -77 -24 -2 0 9 28 25 63 17 35 38 111 50 177 87 470 319 978 589
1289 330 381 753 633 1303 775 235 61 365 120 466 212 75 68 117 130 142 212
67 217 -46 400 -310 502 -272 104 -718 71 -1155 -87 -407 -146 -765 -376
-1109 -712 -310 -304 -529 -627 -748 -1101 -202 -439 -367 -728 -582 -1013
-153 -205 -207 -268 -346 -405 -563 -558 -1274 -879 -2135 -963 -186 -19 -633
-16 -825 5 -271 30 -269 30 -285 16 -20 -17 -19 -53 3 -72 23 -21 235 -46 506
-60 484 -26 960 31 1408 166 393 119 821 344 1138 598 126 102 339 305 427
408 147 172 348 454 447 628 26 45 49 82 51 82 1 0 -3 -28 -11 -62 -31 -147
-47 -377 -41 -593 8 -287 39 -477 124 -755 95 -315 278 -649 498 -910 122
-146 141 -165 275 -283 372 -326 816 -541 1285 -622 412 -71 784 -54 1212 55
574 147 1240 537 1665 979 387 401 657 870 788 1370 48 184 72 492 51 652 -16
124 -36 191 -87 298 -103 217 -271 385 -528 526 -36 20 -68 41 -72 46 -12 20
28 121 63 160 31 34 112 88 116 77 52 -108 76 -145 125 -189 137 -125 377
-186 627 -160 274 29 501 83 755 178 274 102 508 221 740 376 864 579 1414
1361 1586 2257 13 68 24 139 24 157 0 18 4 33 9 33 18 0 33 -237 29 -450 -11
-480 -119 -870 -493 -1780 -274 -665 -376 -1045 -392 -1455 -13 -337 53 -618
207 -884 60 -104 60 -104 60 -185 0 -426 154 -906 415 -1296 145 -216 364
-440 583 -597 102 -73 328 -203 462 -267 281 -132 648 -229 1000 -266 123 -13
463 -13 610 0 364 32 809 159 1141 325 431 217 836 557 1118 939 137 185 318
526 380 716 48 150 61 223 57 340 -4 110 -13 155 -76 364 -65 214 -75 273 -74
451 0 178 12 248 63 382 65 167 169 310 337 462 150 135 253 201 909 584 471
274 688 437 1005 757 240 241 412 450 810 985 338 454 490 637 713 858 308
306 584 505 932 673 320 154 618 240 1025 296 146 20 680 16 840 -6 365 -50
553 -93 864 -197 114 -38 222 -76 240 -83 17 -8 90 -40 161 -72 195 -85 400
-190 595 -304 242 -142 226 -135 255 -116 35 23 31 50 -10 82 -79 60 -364 221
-570 323 -359 177 -622 275 -1000 370 -371 93 -625 122 -1035 116 -360 -4
-544 -29 -842 -111 -666 -183 -1173 -504 -1685 -1066 -176 -193 -298 -344
-631 -788 -382 -507 -506 -656 -766 -914 -294 -290 -578 -503 -970 -726 -616
-350 -842 -502 -1009 -680 -244 -259 -350 -542 -334 -888 7 -140 21 -216 68
-369 18 -57 30 -105 27 -108 -3 -3 -27 5 -54 17 -61 27 -181 35 -256 18 -68
-16 -187 -78 -259 -134 -41 -32 -83 -84 -160 -197 -152 -224 -243 -335 -418
-510 -206 -205 -362 -329 -573 -455 -285 -169 -564 -275 -850 -323 -502 -84
-879 -20 -1226 209 -345 226 -566 568 -637 984 -19 114 -19 305 0 426 32 195
135 444 253 608 174 244 438 482 757 682 327 206 594 299 1076 375 138 22 305
60 370 84 119 45 239 145 280 234 25 57 26 176 0 232 -29 65 -122 158 -198
198 -225 118 -639 154 -1058 91 -521 -77 -1239 -395 -1665 -737 -198 -159
-438 -417 -569 -611 -134 -198 -253 -444 -315 -649 -38 -126 -86 -331 -86
-369 0 -14 -3 -40 -6 -57 -6 -31 -8 -29 -45 54 -170 382 -183 774 -42 1315 64
247 148 481 344 961 323 792 430 1193 446 1669 8 270 -23 539 -91 766 -13 44
-26 123 -30 179 -11 149 -23 235 -57 390 -59 267 -111 419 -224 650 -275 563
-729 1016 -1306 1306 -288 144 -580 229 -909 264 -166 18 -509 18 -680 -1z
m705 -98 c567 -73 1093 -327 1534 -742 325 -305 584 -724 724 -1169 27 -85 90
-365 84 -371 -2 -2 -27 32 -56 75 -110 166 -245 261 -369 261 -100 0 -172 -39
-172 -93 0 -23 15 -43 74 -101 134 -128 171 -252 170 -576 0 -216 -11 -321
-55 -517 -71 -314 -217 -663 -387 -923 -309 -474 -658 -797 -1102 -1020 -215
-108 -383 -167 -578 -206 -77 -15 -291 -31 -282 -21 3 2 46 21 95 42 180 74
449 219 629 339 226 151 350 249 494 390 l112 110 45 -51 c55 -62 100 -81 155
-64 46 14 109 76 146 145 52 95 30 180 -61 236 l-36 22 19 32 c11 17 45 74 77
126 32 52 80 141 108 198 40 83 52 102 66 96 78 -34 129 -47 163 -40 83 15
136 96 145 220 9 119 -32 166 -146 166 -49 0 -50 1 -42 23 29 75 93 409 107
555 3 39 8 72 9 72 1 0 19 -7 38 -15 143 -59 261 53 242 229 -15 139 -96 192
-231 151 -27 -8 -50 -15 -50 -15 -1 0 -7 44 -13 98 -17 136 -65 325 -118 467
-106 283 -265 518 -507 752 -128 124 -242 212 -416 320 -173 108 -246 172
-366 321 -222 278 -324 325 -704 325 -527 2 -1036 -154 -1483 -453 -326 -217
-573 -460 -799 -785 -260 -373 -436 -865 -464 -1297 -12 -186 15 -279 83 -286
49 -5 90 52 153 215 217 564 538 1057 890 1368 469 415 1035 672 1600 726 143
13 352 6 480 -16 47 -8 97 -15 113 -15 25 0 27 3 27 40 0 35 -4 42 -27 51 -37
14 -207 39 -268 39 -93 0 -95 2 -95 84 0 88 -20 132 -75 164 -35 20 -50 22
-125 19 -172 -7 -243 -90 -195 -227 8 -23 15 -46 15 -50 0 -4 -33 -12 -72 -19
-96 -16 -310 -72 -424 -110 -51 -17 -94 -31 -97 -31 -3 0 -13 25 -22 55 -31
108 -115 162 -204 132 -38 -14 -111 -54 -141 -79 -77 -64 -79 -149 -6 -235 15
-18 25 -37 22 -42 -4 -5 -36 -26 -73 -47 -87 -49 -240 -152 -325 -220 -37 -30
-71 -54 -76 -54 -5 0 -19 15 -32 33 -62 90 -147 112 -231 59 -56 -37 -117
-104 -125 -139 -3 -16 -7 -33 -9 -40 -9 -29 19 -86 66 -133 l50 -50 -63 -72
c-265 -306 -482 -671 -643 -1078 -31 -80 -61 -149 -67 -155 -7 -7 -8 22 -3 90
35 520 228 996 586 1446 307 386 725 688 1186 857 117 43 346 103 483 126 315
53 629 43 777 -26 65 -30 166 -130 260 -255 99 -133 149 -175 392 -332 95 -61
205 -138 245 -170 87 -71 284 -273 349 -358 164 -214 302 -520 356 -789 45
-222 47 -544 5 -814 -51 -324 -217 -768 -384 -1025 -342 -524 -859 -940 -1513
-1215 -170 -72 -208 -95 -221 -133 -12 -34 -2 -53 44 -84 29 -21 45 -23 146
-23 191 0 442 55 674 147 769 305 1393 990 1670 1833 161 487 182 1027 51
1305 -15 33 -49 87 -76 119 l-48 59 51 -6 c63 -7 101 -27 159 -80 84 -77 187
-245 254 -412 l31 -80 -6 -155 c-23 -587 -238 -1164 -625 -1680 -267 -356
-567 -633 -988 -911 -470 -309 -1071 -519 -1498 -522 -355 -2 -549 122 -581
373 -16 126 82 257 271 359 76 41 104 53 331 135 309 111 651 299 899 495 352
278 604 543 767 806 201 324 298 657 298 1024 0 412 -133 770 -404 1085 -150
174 -461 381 -699 465 -205 72 -371 96 -616 88 -293 -9 -524 -69 -794 -205
-256 -130 -472 -298 -684 -533 -337 -374 -578 -787 -743 -1274 -103 -302 -145
-391 -219 -465 -90 -88 -248 -155 -351 -148 -271 20 -372 372 -274 958 94 559
390 1186 769 1628 382 445 880 773 1457 960 271 88 468 129 733 152 130 11
440 4 580 -14z m-354 -413 c18 -21 19 -131 1 -142 -7 -4 -41 -9 -75 -10 -34
-1 -69 -4 -77 -6 -11 -4 -20 9 -33 44 -23 66 -22 86 9 110 35 28 154 30 175 4z
m-1003 -243 c11 -11 24 -37 28 -57 4 -21 10 -45 15 -54 6 -12 -8 -22 -69 -48
-42 -19 -82 -35 -87 -37 -16 -7 -78 102 -71 124 7 20 121 92 146 92 9 0 26 -9
38 -20z m1267 -528 c338 -74 687 -284 891 -538 78 -96 172 -245 212 -334 120
-268 165 -628 116 -920 -51 -303 -208 -643 -421 -910 -208 -262 -571 -573
-903 -775 -150 -92 -441 -229 -605 -285 -410 -141 -581 -283 -617 -514 l-12
-73 -53 -28 c-89 -46 -161 -140 -187 -244 l-12 -43 -29 24 c-17 13 -77 52
-135 86 -184 108 -353 260 -428 385 -65 109 -109 283 -99 396 7 75 29 164 88
348 57 181 69 236 69 333 0 111 -18 181 -81 308 -56 115 -149 224 -240 283
-60 38 -177 87 -230 95 -22 4 -39 9 -39 11 0 2 11 19 25 37 40 53 92 178 167
401 39 115 84 244 100 285 49 124 215 425 331 600 148 223 412 520 582 657
281 226 630 388 910 423 55 6 107 13 115 15 8 2 101 2 205 0 140 -2 214 -8
280 -23z m-2055 -69 l31 -38 -68 -62 c-37 -34 -73 -62 -79 -63 -13 0 -57 47
-73 78 -8 14 -8 28 -2 40 14 25 62 68 95 86 36 18 52 11 96 -41z m3984 -1259
c12 -11 16 -36 16 -95 0 -67 -3 -82 -21 -100 -18 -18 -28 -20 -63 -13 -22 4
-53 7 -68 7 l-28 0 0 88 0 87 58 20 c71 25 86 26 106 6z m-199 -1028 c15 -11
17 -21 12 -61 -19 -134 -68 -155 -185 -80 -3 2 34 109 47 134 9 17 21 21 59
21 27 0 56 -6 67 -14z m-5297 -590 c152 -38 287 -128 332 -220 31 -65 27 -148
-10 -222 -42 -83 -80 -126 -164 -182 -85 -57 -188 -96 -411 -157 -390 -106
-667 -241 -978 -477 -245 -186 -484 -480 -632 -776 -151 -303 -240 -550 -291
-802 -35 -176 -50 -223 -100 -321 -120 -232 -286 -338 -389 -247 -61 53 -94
142 -110 298 l-7 65 33 -39 c39 -47 82 -66 147 -66 81 0 86 12 133 316 44 295
120 522 270 814 160 311 302 504 563 766 286 286 549 474 972 694 170 89 200
111 209 150 22 99 -138 126 -404 68 -250 -53 -592 -214 -821 -387 -93 -70
-301 -270 -384 -370 -314 -377 -633 -987 -741 -1416 -83 -327 -87 -684 -11
-850 70 -153 205 -213 340 -152 l54 25 -9 -32 c-13 -44 -13 -165 1 -201 33
-87 107 -139 222 -156 89 -13 93 -18 102 -131 9 -111 53 -168 148 -187 l53
-11 0 -78 c1 -65 6 -88 28 -135 36 -72 70 -93 175 -106 46 -6 102 -19 126 -29
31 -14 282 -172 315 -199 2 -1 -16 -21 -42 -43 -126 -111 -157 -251 -80 -362
30 -45 126 -120 183 -145 208 -89 531 -134 817 -113 380 29 749 138 1138 339
801 412 1325 976 1514 1626 51 177 67 377 35 424 -14 20 -23 22 -56 18 -22 -3
-48 -13 -59 -23 -11 -10 -77 -108 -146 -218 -212 -339 -314 -481 -510 -712
-112 -134 -317 -333 -458 -445 -409 -327 -958 -552 -1480 -605 -176 -18 -224
-34 -250 -84 -36 -70 0 -170 75 -207 l44 -23 -49 0 c-90 0 -298 29 -400 55
-173 45 -283 108 -325 189 -35 65 -19 108 73 202 l72 73 122 -6 c135 -7 170
-1 293 53 101 43 135 51 270 64 210 19 355 49 565 116 464 149 806 344 1074
613 226 226 413 494 534 766 27 61 84 214 127 340 82 243 130 367 187 477 50
99 59 162 45 316 -13 142 -15 202 -6 202 4 0 54 -28 113 -62 132 -78 302 -242
367 -353 97 -167 118 -262 118 -515 -1 -170 -4 -213 -28 -334 -78 -405 -290
-836 -601 -1226 -129 -162 -329 -362 -480 -479 -139 -109 -382 -271 -540 -362
-315 -181 -695 -318 -1065 -386 -132 -24 -168 -27 -405 -27 -287 -1 -389 10
-610 65 -609 151 -1100 470 -1455 944 -257 343 -412 711 -491 1170 -32 179
-34 615 -5 800 89 573 380 1194 765 1635 351 401 724 672 1176 852 208 83 355
121 630 162 69 10 381 -3 443 -18z m4802 -206 c47 -24 58 -55 35 -100 -21 -40
-84 -110 -99 -110 -7 0 -31 20 -55 44 l-44 45 58 70 c31 39 59 71 62 71 2 0
22 -9 43 -20z m-5535 -281 c-312 -169 -532 -313 -735 -482 l-82 -69 -27 25
c-62 58 -123 63 -195 16 -52 -35 -109 -100 -126 -144 -18 -47 -4 -110 34 -149
l32 -35 -79 -93 c-81 -97 -190 -252 -246 -350 -18 -32 -34 -58 -36 -58 -1 0
-19 7 -38 15 -46 19 -100 19 -137 0 -17 -9 -30 -14 -30 -12 0 24 205 361 307
504 140 199 393 447 589 578 256 173 667 330 874 334 44 1 42 -1 -105 -80z
m9675 -509 c254 -52 403 -150 424 -281 11 -68 -9 -116 -74 -180 -96 -94 -185
-129 -430 -169 -603 -99 -898 -203 -1260 -445 -567 -378 -875 -769 -982 -1246
-20 -91 -23 -130 -22 -304 0 -167 4 -216 22 -298 42 -187 109 -352 210 -515
216 -348 586 -602 1009 -693 140 -30 460 -38 628 -15 473 66 930 264 1318 572
292 232 480 437 699 762 94 140 168 211 276 264 81 41 90 43 171 43 76 0 92
-3 132 -27 133 -78 164 -258 85 -493 -88 -260 -274 -584 -474 -825 -76 -92
-272 -290 -367 -370 -165 -140 -415 -305 -601 -398 -479 -240 -1060 -364
-1555 -332 -305 19 -476 49 -747 131 -462 139 -855 373 -1151 686 -303 319
-513 742 -586 1178 -25 155 -40 305 -30 305 4 0 23 -14 42 -30 73 -64 218
-121 307 -119 54 1 91 12 143 44 39 23 76 109 95 217 13 73 13 72 19 -142 5
-162 12 -239 28 -313 58 -270 152 -485 315 -717 78 -111 312 -344 451 -450
140 -107 295 -261 370 -370 150 -216 265 -273 614 -305 443 -40 843 9 1230
151 645 237 1139 673 1437 1267 105 209 126 314 71 352 -52 37 -91 11 -225
-154 -153 -189 -342 -390 -457 -489 -442 -381 -930 -610 -1477 -693 -199 -30
-485 -30 -685 0 -407 61 -727 216 -1016 490 -442 420 -636 980 -536 1546 80
454 266 800 624 1159 248 248 464 405 740 541 242 118 413 177 785 271 144 36
179 48 198 69 29 34 28 60 -3 89 -40 37 -145 50 -348 43 -351 -12 -597 -77
-952 -252 -560 -277 -1031 -735 -1289 -1255 -163 -328 -236 -662 -191 -866 9
-43 24 -91 31 -106 20 -38 18 -40 -18 -33 -90 20 -227 107 -283 181 -26 34
-26 34 -15 136 17 158 39 272 76 401 207 720 774 1331 1574 1694 329 149 681
259 955 297 169 24 177 24 390 21 153 -3 224 -9 305 -25z m-10585 -90 c18 -20
18 -22 -55 -95 l-75 -75 -17 22 c-29 38 -22 67 31 119 53 54 86 62 116 29z
m10120 -200 c18 -1 -30 -17 -115 -39 -375 -97 -706 -235 -949 -397 l-100 -67
-25 30 c-31 37 -76 57 -115 51 -17 -2 -28 -1 -26 2 8 14 196 121 312 180 211
106 419 177 628 216 91 16 289 33 335 28 14 -1 39 -3 55 -4z m-1269 -534 c18
-14 18 -16 -16 -51 -19 -20 -52 -50 -73 -67 l-37 -30 -16 37 c-17 43 -13 51
50 97 44 31 63 34 92 14z m-231 -26 c-22 -42 -19 -87 11 -137 l25 -44 -130
-134 c-72 -74 -138 -146 -147 -160 -20 -30 -27 -31 -63 -4 -43 32 -131 29
-177 -6 -51 -39 -94 -120 -94 -177 0 -39 5 -52 31 -77 17 -17 36 -31 42 -31
40 -1 37 -17 -18 -131 -31 -63 -75 -171 -100 -239 -36 -103 -46 -124 -62 -122
-91 14 -149 12 -179 -7 -45 -27 -74 -109 -74 -204 0 -91 21 -131 80 -148 22
-7 40 -17 39 -23 0 -6 -13 -47 -28 -91 -21 -62 -32 -81 -48 -83 -25 -4 -47 38
-62 122 -15 83 -14 156 5 267 42 247 173 564 327 794 121 180 360 439 547 594
47 38 86 70 88 71 1 0 -4 -13 -13 -30z m-9236 -59 c11 -7 5 -26 -32 -97 -49
-96 -70 -110 -96 -63 -19 35 -8 86 30 132 31 37 67 48 98 28z m-206 -215 c10
-15 34 -34 52 -43 19 -9 35 -20 35 -24 0 -3 -12 -38 -26 -75 -47 -125 -76
-227 -103 -359 l-26 -130 -55 -3 c-87 -4 -99 -9 -131 -60 -17 -26 -29 -38 -26
-27 3 11 13 72 22 135 24 164 79 339 182 583 l48 112 5 -41 c3 -23 14 -53 23
-68z m9085 -292 l22 -15 -29 -42 c-16 -23 -38 -50 -49 -60 -19 -17 -21 -17
-47 6 -25 21 -26 26 -15 48 19 36 62 79 80 79 8 0 26 -7 38 -16z m-6525 -165
c86 -23 99 -117 35 -252 -61 -127 -150 -248 -443 -598 -223 -266 -377 -526
-484 -812 -58 -155 -95 -210 -228 -336 -63 -61 -119 -111 -124 -111 -5 0 -71
41 -146 91 -171 114 -242 148 -335 161 -40 5 -82 11 -93 13 -33 7 -58 61 -63
140 l-4 72 87 12 c203 28 424 129 574 262 128 112 317 346 389 480 35 66 42
131 19 163 -32 44 -158 20 -369 -69 -300 -128 -433 -214 -566 -370 -57 -65
-142 -211 -178 -302 -30 -80 -38 -84 -99 -58 -40 16 -49 35 -59 119 -14 126
-60 179 -165 192 -137 17 -178 74 -159 218 11 84 37 133 108 209 99 107 151
126 440 167 149 20 342 58 435 85 134 39 242 84 530 223 594 285 758 340 898
301z m-2664 -278 c12 -8 12 -22 2 -88 -16 -102 -20 -113 -37 -113 -8 0 -27 12
-41 26 -23 23 -25 31 -20 81 9 86 48 124 96 94z m4777 -527 c-67 -234 -135
-382 -271 -589 -74 -112 -247 -325 -328 -403 l-45 -44 11 39 c16 60 1 111 -44
156 l-39 40 73 81 c207 230 334 405 663 916 6 11 10 2 12 -30 2 -29 -9 -88
-32 -166z m4059 174 c19 -9 24 -16 19 -32 -4 -12 -13 -43 -20 -71 -19 -71 -53
-90 -120 -65 -25 10 -26 13 -21 59 3 27 13 65 21 85 14 33 18 36 55 36 22 0
52 -5 66 -12z m-7111 -225 c-129 -204 -315 -409 -452 -500 -118 -79 -277 -142
-419 -167 -43 -7 -43 5 3 97 73 146 172 265 295 357 101 75 301 172 494 241
118 42 123 40 79 -28z m11490 -840 c-57 -130 -194 -355 -297 -490 -205 -267
-451 -481 -731 -635 -243 -134 -420 -206 -646 -264 -241 -61 -382 -78 -665
-78 -412 -1 -624 44 -731 156 -34 35 -159 208 -150 208 1 0 47 -15 102 -33 54
-19 133 -42 175 -51 l76 -17 -14 -42 c-18 -52 -5 -106 33 -136 42 -33 213 -59
254 -38 43 22 72 76 68 127 l-3 45 160 1 c140 1 316 16 366 30 13 4 17 -6 21
-51 8 -95 67 -131 184 -113 155 23 203 95 150 219 -6 13 1 20 31 29 94 30 308
114 379 149 l79 38 20 -41 c45 -93 128 -108 233 -43 111 68 133 153 61 233
-19 21 -19 21 53 69 251 167 478 384 766 733 24 28 46 52 48 52 2 0 -8 -26
-22 -57z m-9186 -16 c36 -33 30 -82 -15 -123 -20 -18 -52 -39 -71 -45 -29 -10
-38 -9 -60 8 -55 41 -53 48 27 123 75 71 79 72 119 37z m-244 -207 c52 -56
114 -75 177 -55 59 19 -245 -197 -436 -310 -207 -122 -275 -158 -275 -146 0 5
4 12 9 15 21 14 22 83 2 137 -12 30 -17 55 -13 57 38 12 327 197 402 256 52
41 97 75 100 75 3 1 18 -13 34 -29z m-626 -367 c5 -10 12 -30 16 -46 9 -37
-28 -71 -102 -94 l-54 -17 -24 27 c-44 51 -34 69 59 110 96 42 94 42 105 20z
m-270 -137 c13 -50 69 -106 107 -106 62 0 19 -22 -158 -78 -106 -34 -223 -69
-262 -78 -176 -40 -388 -69 -330 -44 11 4 31 20 45 35 22 23 25 36 25 101 0
66 2 74 19 74 35 0 324 70 428 105 57 18 105 33 108 34 3 1 11 -19 18 -43z
m-668 -161 c0 -40 -3 -47 -26 -55 -14 -6 -52 -10 -84 -10 -70 0 -93 17 -88 64
3 31 3 31 73 37 138 11 125 15 125 -36z m10084 23 c20 -28 8 -50 -44 -83 -51
-32 -78 -32 -90 1 -16 42 -12 48 43 77 63 32 72 33 91 5z m-820 -334 c3 -9 6
-26 6 -38 0 -19 -9 -24 -72 -39 -40 -10 -75 -14 -80 -9 -5 5 -11 25 -15 45 -5
35 -5 36 33 42 22 4 44 8 49 10 29 10 73 4 79 -11z m-889 -64 c4 -16 1 -38 -5
-50 -10 -19 -17 -20 -73 -14 -76 8 -97 18 -97 46 0 42 23 53 99 50 68 -3 70
-4 76 -32z"/>
<path d="M19576 12489 c-301 -31 -581 -99 -806 -196 -373 -162 -728 -410
-1051 -735 -442 -446 -749 -980 -919 -1601 -166 -603 -166 -1175 0 -1605 65
-169 210 -354 351 -448 96 -64 239 -128 349 -158 107 -29 282 -51 347 -43 l43
4 41 -76 c82 -153 150 -244 279 -371 178 -177 318 -259 530 -313 123 -31 404
-31 575 0 246 45 540 159 810 316 836 484 1502 1474 1664 2475 48 291 53 696
12 937 -75 442 -248 844 -484 1123 -310 367 -755 606 -1257 676 -138 20 -373
27 -484 15z m484 -113 c651 -103 1169 -476 1430 -1029 158 -335 228 -629 237
-1004 14 -555 -97 -1036 -363 -1563 -115 -228 -196 -364 -310 -517 -404 -546
-884 -925 -1419 -1121 -275 -100 -527 -143 -721 -122 -315 34 -530 162 -763
455 -59 74 -157 232 -149 241 3 2 38 14 79 25 164 45 345 156 431 266 95 121
189 319 256 543 111 364 110 470 -4 470 -55 0 -84 -14 -199 -98 -218 -158
-416 -339 -523 -479 -82 -105 -150 -331 -159 -527 l-6 -119 -101 6 c-240 14
-467 96 -632 229 -202 163 -324 454 -365 868 -41 425 71 1008 295 1528 84 196
232 456 363 640 238 335 589 670 943 901 327 214 746 369 1110 410 52 6 109
13 125 15 60 9 352 -4 445 -18z m-1306 -3474 c-75 -346 -188 -650 -297 -799
-82 -110 -213 -203 -365 -257 -118 -42 -116 -44 -108 71 10 148 41 275 93 383
41 84 57 107 152 200 58 58 144 137 191 176 126 106 323 253 331 248 4 -2 5
-12 3 -22z"/>
<path d="M19135 12061 c-182 -30 -487 -158 -745 -314 -361 -217 -679 -521
-899 -857 -88 -134 -222 -394 -274 -530 -128 -335 -196 -709 -184 -1015 5
-142 16 -193 51 -228 37 -36 97 -13 130 51 7 15 35 104 60 197 92 332 117 412
170 550 327 852 859 1384 1716 1718 163 64 208 90 250 149 48 66 38 170 -21
225 -53 48 -154 70 -254 54z m173 -112 c27 -17 46 -61 37 -88 -10 -32 -83 -89
-139 -107 -28 -9 -109 -42 -181 -72 -118 -49 -131 -53 -140 -37 -74 126 -133
147 -252 87 -116 -59 -153 -133 -114 -226 11 -28 21 -55 21 -58 0 -4 -26 -24
-57 -44 -114 -73 -397 -298 -425 -339 -5 -6 -13 -2 -23 12 -8 12 -31 31 -51
43 -75 47 -174 8 -243 -97 -65 -98 -50 -182 44 -238 14 -9 11 -17 -30 -70 -77
-99 -205 -311 -273 -455 -127 -267 -202 -475 -292 -814 -27 -104 -52 -191 -55
-194 -12 -12 -4 306 10 414 43 329 125 594 279 903 109 220 202 356 383 561
285 323 651 579 1065 744 221 88 373 114 436 75z m-537 -308 c16 -16 29 -36
29 -45 0 -9 -33 -31 -82 -56 l-83 -40 -17 21 c-26 30 -22 61 10 92 24 23 84
56 105 57 5 0 22 -13 38 -29z m-817 -622 l26 -31 -62 -69 c-57 -64 -63 -68
-82 -56 -30 20 -40 41 -33 69 8 31 90 118 111 118 8 0 26 -14 40 -31z"/>
<path d="M19427 11359 c-315 -36 -648 -177 -912 -384 -97 -77 -301 -281 -388
-390 -233 -291 -362 -592 -471 -1097 -25 -114 -55 -226 -67 -250 -11 -24 -79
-101 -149 -173 -144 -146 -182 -200 -212 -299 -48 -158 14 -356 111 -356 40 0
68 32 86 98 46 163 88 231 191 310 39 30 176 106 319 179 478 241 630 349 969
682 286 280 398 372 504 411 109 41 158 6 156 -110 -2 -123 -43 -266 -155
-548 -120 -301 -163 -439 -206 -667 -11 -56 -17 -192 -23 -455 -7 -355 -9
-379 -32 -455 -42 -141 -86 -192 -256 -294 -63 -38 -81 -104 -42 -154 27 -34
109 -60 183 -59 141 2 252 100 354 312 30 63 75 157 99 207 52 108 136 200
273 298 361 257 672 605 835 931 210 421 274 857 186 1264 -54 245 -181 506
-319 653 -249 265 -631 393 -1034 346z m365 -104 c367 -64 623 -258 776 -588
191 -408 200 -850 27 -1312 -155 -414 -425 -749 -901 -1116 -123 -95 -205
-172 -244 -229 -21 -31 -68 -123 -106 -205 -134 -298 -201 -364 -361 -357 -46
3 -41 22 15 56 127 79 192 160 235 294 38 117 39 121 38 357 -1 561 36 759
234 1245 117 288 161 461 153 607 -7 138 -62 195 -185 194 -137 -1 -271 -93
-597 -410 -229 -222 -397 -364 -551 -466 -50 -33 -216 -124 -370 -203 -310
-159 -418 -226 -488 -301 -53 -57 -100 -148 -118 -228 -7 -29 -16 -53 -20 -53
-12 0 -22 87 -16 146 9 90 56 162 210 321 89 92 145 158 158 187 11 25 42 146
69 269 114 511 245 808 486 1098 94 113 307 315 415 391 98 71 274 166 393
213 227 89 538 127 748 90z"/>
<path d="M21185 10724 c-45 -23 -72 -51 -97 -103 -21 -43 -22 -63 -29 -346 -8
-325 -21 -456 -70 -675 -59 -269 -125 -459 -229 -657 -199 -380 -448 -685
-865 -1058 -200 -179 -295 -277 -296 -308 -3 -46 3 -63 28 -86 34 -30 89 -26
185 13 280 113 665 397 916 676 400 445 650 1015 732 1670 37 290 26 635 -24
752 -20 46 -70 104 -107 124 -37 18 -106 18 -144 -2z m137 -116 c43 -49 53
-134 53 -438 0 -233 -3 -281 -23 -400 -100 -577 -278 -993 -596 -1399 -237
-302 -639 -625 -945 -761 -47 -21 -88 -36 -91 -33 -3 3 13 21 36 41 255 229
442 402 499 463 206 218 369 427 485 624 l61 103 42 -21 c55 -28 117 -28 154
-1 15 11 46 56 68 100 68 134 54 205 -48 250 -23 10 -43 18 -44 19 -1 0 16 56
37 123 30 92 110 424 110 454 0 2 33 3 74 3 65 0 78 3 101 25 27 25 49 91 60
176 12 99 -41 164 -142 172 l-53 4 -2 137 c0 75 -2 160 -3 190 -2 55 13 129
34 170 27 49 90 49 133 -1z m-78 -600 c16 -9 17 -18 11 -76 -10 -100 -30 -122
-93 -106 -23 7 -23 8 -16 98 3 50 8 94 11 98 4 9 60 -1 87 -14z m-247 -970
c20 -17 15 -49 -20 -113 -35 -65 -54 -76 -93 -50 -28 18 -28 21 17 121 28 62
32 66 57 59 15 -4 33 -11 39 -17z"/>
</g>
</svg>
