<?xml version="1.0" standalone="no"?>
<!DOCTYPE svg PUBLIC "-//W3C//DTD SVG 20010904//EN"
 "http://www.w3.org/TR/2001/REC-SVG-20010904/DTD/svg10.dtd">
<svg version="1.0" xmlns="http://www.w3.org/2000/svg"
 width="1024.000000pt" height="1024.000000pt" viewBox="0 0 1024.000000 1024.000000"
 preserveAspectRatio="xMidYMid meet">

<g transform="translate(0.000000,1024.000000) scale(0.100000,-0.100000)"
fill="#000000" stroke="none">
<path d="M5935 7429 c-10 -14 32 -57 78 -81 22 -11 70 -22 110 -25 l72 -6 -70
-24 c-165 -55 -266 -52 -351 13 -45 35 -74 40 -82 16 -5 -16 50 -67 102 -95
34 -18 57 -22 141 -22 86 0 116 5 210 35 133 42 243 47 338 16 31 -10 57 -22
57 -26 0 -4 -19 -12 -42 -19 -80 -24 -175 -69 -279 -132 -100 -60 -107 -63
-182 -67 -53 -3 -122 3 -217 18 -152 25 -225 21 -305 -17 -32 -15 -40 -24 -40
-46 1 -23 -2 -26 -20 -20 -11 3 -52 6 -91 6 -58 0 -83 -5 -126 -26 -71 -35
-106 -71 -88 -92 18 -21 28 -19 66 14 65 57 163 66 289 25 97 -32 188 -41 251
-25 26 7 92 33 146 58 102 46 133 50 82 11 -16 -13 -63 -52 -104 -88 -209
-181 -228 -191 -402 -198 -116 -4 -118 -5 -118 -28 0 -24 1 -24 103 -24 l102
-1 -40 -36 c-65 -58 -201 -143 -289 -180 -158 -67 -307 -95 -601 -113 -329
-20 -496 -64 -652 -172 -59 -40 -84 -42 -213 -19 -135 25 -190 26 -285 6 -240
-50 -398 -223 -461 -504 -46 -207 -98 -315 -192 -401 -48 -44 -138 -90 -178
-90 -20 0 -29 -27 -15 -44 30 -36 186 38 266 126 75 83 120 183 165 364 48
192 85 269 170 355 129 131 300 175 517 134 135 -26 174 -22 257 29 188 114
289 138 701 166 394 26 626 112 882 327 39 33 95 77 125 98 29 21 87 68 128
105 263 232 485 371 696 439 132 42 188 51 306 51 l100 0 58 45 c32 25 61 45
63 45 3 0 -1 -23 -8 -52 -8 -28 -12 -55 -9 -60 3 -4 30 -32 61 -60 70 -67 107
-120 144 -210 16 -39 64 -127 107 -195 132 -211 122 -186 102 -251 -19 -61
-31 -70 -97 -71 -39 -1 -45 2 -70 40 -16 25 -56 60 -104 90 -42 27 -83 56 -89
64 -8 10 -31 15 -67 15 -147 0 -246 145 -198 290 18 55 11 78 -20 66 -39 -15
-59 -151 -33 -227 33 -99 124 -172 228 -185 35 -4 69 -16 95 -34 22 -16 59
-40 82 -54 23 -14 53 -45 68 -70 30 -52 52 -60 136 -50 74 8 91 23 118 97 28
77 27 94 -12 158 -19 30 -63 101 -98 159 -36 58 -82 143 -102 189 -40 88 -84
156 -136 205 -17 17 -31 34 -31 39 0 5 16 35 35 67 56 93 39 139 -24 63 l-30
-38 9 35 c23 83 2 86 -103 11 -47 -34 -94 -61 -104 -61 -10 0 -50 18 -88 41
-83 49 -125 67 -185 80 -64 15 -221 12 -331 -6 -130 -21 -233 -19 -285 4 -23
10 -45 24 -48 30 -9 14 -43 14 -51 0z m704 -84 c64 -16 147 -51 155 -64 3 -5
-36 -12 -88 -16 -82 -6 -98 -4 -132 13 -61 31 -143 52 -202 52 -67 0 -64 7 9
19 85 14 196 12 258 -4z m-821 -367 c34 -6 62 -15 62 -19 0 -10 -100 -47 -162
-60 -53 -12 -94 -7 -171 17 -51 17 -52 26 -6 50 67 34 136 37 277 12z"/>
<path d="M6120 7177 c-92 -41 -99 -42 -200 -42 -85 0 -120 5 -180 25 -90 30
-218 33 -289 6 -54 -20 -111 -62 -111 -81 0 -28 23 -26 88 6 94 48 185 52 308
13 71 -22 108 -28 184 -28 88 0 103 3 205 42 124 48 145 63 125 86 -17 21 -21
21 -130 -27z"/>
<path d="M5620 6764 c-19 -7 -69 -13 -110 -14 -154 -1 -266 -33 -351 -101 -41
-32 -50 -63 -22 -73 11 -4 27 4 47 23 60 58 131 81 278 91 176 12 233 29 226
66 -4 23 -23 26 -68 8z"/>
<path d="M6696 6699 c-82 -72 -185 -244 -234 -392 l-19 -57 -28 41 c-64 92
-180 168 -313 205 -67 19 -92 14 -92 -15 0 -15 10 -23 43 -31 179 -46 289
-125 348 -249 39 -82 35 -228 -8 -313 l-13 -28 -43 44 c-50 53 -102 68 -142
42 -18 -12 -25 -25 -25 -49 0 -42 42 -83 126 -125 67 -34 259 -92 368 -112 81
-15 111 -39 122 -95 8 -47 -10 -110 -39 -131 -55 -39 -328 -208 -379 -235
l-57 -29 -68 15 c-81 19 -195 54 -206 65 -12 11 104 81 128 78 16 -2 20 -11
20 -43 0 -39 0 -40 34 -37 19 2 44 -2 57 -9 20 -10 32 -7 96 26 108 56 263
162 275 188 8 17 7 31 -2 53 -24 58 -29 59 -259 60 -131 0 -224 5 -245 12 -25
8 -44 8 -76 0 -67 -18 -86 0 -125 117 -35 105 -78 171 -128 196 -99 50 -145
-66 -78 -198 32 -65 87 -117 153 -145 29 -13 53 -26 53 -29 0 -9 -106 -54
-182 -78 -240 -73 -468 -77 -761 -15 -251 53 -324 53 -432 0 -27 -14 -51 -24
-52 -22 -2 1 6 43 17 92 25 113 26 192 4 201 -27 10 -44 -25 -44 -87 0 -139
-74 -319 -178 -431 -75 -81 -129 -119 -302 -214 -297 -162 -441 -267 -496
-361 -35 -59 -75 -183 -114 -348 -24 -101 -39 -145 -54 -158 -53 -47 -185
-147 -213 -162 -49 -25 -66 -22 -59 12 31 127 33 129 85 109 36 -15 42 -15 56
-1 8 8 15 20 15 25 0 5 16 27 36 49 29 32 44 64 70 152 37 119 67 261 84 398
7 47 17 96 23 110 8 16 46 43 106 75 172 92 241 179 242 306 0 35 -7 116 -16
179 -32 212 -4 384 84 530 23 38 36 69 31 74 -5 5 -45 11 -89 14 -159 9 -311
-46 -415 -151 -79 -79 -123 -164 -175 -340 -80 -267 -163 -400 -302 -480 -100
-57 -234 -72 -339 -37 -46 15 -57 16 -69 4 -48 -45 131 -95 264 -74 247 39
398 216 510 600 50 172 113 273 210 340 24 17 46 30 48 30 3 0 -15 -29 -39
-65 -58 -87 -72 -140 -89 -331 -10 -109 -21 -180 -35 -217 -27 -72 -86 -161
-143 -216 l-46 -44 35 81 c42 96 50 167 19 167 -15 0 -25 -18 -50 -90 -58
-173 -129 -240 -303 -285 -45 -12 -63 -33 -43 -53 29 -29 270 68 388 157 34
26 82 74 107 107 89 118 115 206 134 444 12 150 35 215 104 291 55 59 101 88
168 103 69 15 73 8 35 -67 -73 -145 -88 -284 -55 -507 13 -88 19 -166 15 -190
-15 -95 -98 -179 -241 -245 -101 -47 -107 -58 -134 -251 -35 -241 -86 -413
-153 -505 -21 -30 -25 -31 -72 -27 -36 4 -54 1 -62 -8 -17 -22 -53 -138 -60
-196 -7 -65 3 -71 79 -49 65 19 101 42 296 193 18 15 33 56 72 212 27 106 63
222 79 257 55 117 145 191 426 349 248 140 279 160 338 214 33 31 88 93 121
138 73 96 118 135 192 163 78 29 153 25 349 -15 94 -19 222 -39 285 -44 268
-20 554 38 744 151 40 23 81 40 95 39 14 -1 131 -3 260 -6 135 -2 239 -9 244
-14 7 -7 6 -16 -3 -26 -25 -30 -134 -103 -214 -143 -68 -34 -84 -38 -108 -30
-19 7 -28 17 -28 31 0 17 -11 27 -45 41 l-45 18 -73 -41 c-95 -55 -142 -94
-135 -113 8 -21 145 -72 272 -101 l109 -25 84 44 c47 24 86 44 88 44 1 0 -6
-17 -16 -37 -34 -66 -54 -142 -42 -154 20 -20 170 8 228 41 28 16 76 38 108
50 31 12 61 29 66 38 5 9 30 87 56 172 25 85 60 186 77 224 35 80 34 114 -5
200 -17 36 -35 60 -55 70 -16 8 -101 27 -188 40 -88 14 -173 28 -190 31 -25 6
-32 3 -41 -18 -14 -29 -32 -23 222 -67 189 -32 191 -33 220 -122 16 -46 16
-48 -13 -115 -17 -37 -53 -141 -82 -230 -30 -94 -57 -163 -64 -163 -7 0 -51
-20 -99 -44 -91 -47 -177 -69 -177 -46 0 7 12 34 27 61 20 37 32 49 50 49 13
0 23 -6 23 -14 0 -7 7 -20 16 -27 14 -11 19 -10 33 6 9 11 28 25 43 32 32 15
78 98 119 222 43 127 36 225 -18 274 -11 9 -60 26 -109 38 -112 26 -256 68
-267 78 -4 5 1 23 12 42 39 68 53 131 56 254 2 98 7 134 29 198 51 151 147
313 222 375 31 26 34 32 25 51 -15 28 -24 27 -65 -10z m-396 -835 c17 -20 29
-39 26 -42 -8 -7 -98 50 -104 66 -2 7 6 12 21 12 16 0 36 -13 57 -36z m-498
-26 c28 -23 55 -72 82 -146 14 -40 26 -77 26 -83 0 -19 -22 -8 -67 34 -52 48
-82 105 -83 158 0 49 12 60 42 37z m928 -500 c0 -6 -14 -33 -31 -60 -33 -51
-44 -54 -114 -39 -30 6 -29 7 50 59 84 55 95 59 95 40z"/>
<path d="M4536 5298 c-7 -13 -30 -49 -49 -80 -84 -134 -250 -279 -440 -384
-298 -165 -316 -194 -352 -549 -14 -133 -20 -166 -39 -195 -29 -45 -181 -200
-195 -200 -14 0 -14 80 -1 114 8 22 16 26 49 26 52 0 72 26 100 127 36 135 55
453 27 453 -27 0 -34 -27 -45 -172 -11 -153 -30 -263 -55 -323 -13 -31 -19
-35 -51 -35 -25 0 -43 -8 -60 -25 -23 -22 -25 -31 -25 -129 0 -58 4 -108 10
-111 11 -7 81 27 127 62 50 39 184 202 193 237 5 17 14 83 20 146 33 345 46
368 293 508 281 159 430 298 526 490 l31 62 -25 0 c-15 0 -30 -9 -39 -22z"/>
<path d="M5675 4939 c-137 -13 -325 -47 -470 -84 -511 -131 -986 -415 -1305
-780 -117 -134 -126 -151 -36 -67 402 373 922 646 1461 767 461 103 1014 106
1519 9 70 -14 130 -23 132 -21 6 5 -211 72 -331 102 -297 74 -672 102 -970 74z"/>
<path d="M6252 3418 c-7 -7 -12 -24 -12 -38 0 -35 17 -50 57 -50 45 0 64 37
39 75 -18 27 -63 34 -84 13z"/>
<path d="M2760 3125 l0 -275 45 0 45 0 0 115 0 115 135 0 135 0 0 40 0 40
-135 0 -135 0 0 80 0 80 150 0 150 0 0 40 0 40 -195 0 -195 0 0 -275z"/>
<path d="M3260 3126 l0 -274 43 2 42 1 3 112 3 112 132 3 132 3 3 38 3 37
-135 0 -136 0 0 80 0 80 150 0 150 0 0 40 0 40 -195 0 -195 0 0 -274z"/>
<path d="M3762 3128 l3 -273 198 -3 197 -2 0 40 0 40 -155 0 -155 0 0 80 0 80
135 0 135 0 0 40 0 40 -135 0 -135 0 0 75 0 75 150 0 150 0 0 40 0 40 -195 0
-195 0 2 -272z"/>
<path d="M4515 3387 c-3 -7 -4 -129 -3 -272 l3 -260 42 -3 43 -3 2 203 3 202
84 -197 c85 -198 85 -198 114 -195 29 3 34 10 112 196 46 106 85 196 89 199 3
4 6 -86 6 -198 l0 -204 40 0 40 0 0 273 0 272 -52 0 -53 0 -89 -200 c-49 -110
-92 -200 -95 -200 -3 0 -44 90 -91 200 l-85 200 -53 0 c-33 0 -54 -5 -57 -13z"/>
<path d="M6490 3320 l0 -60 -36 0 c-34 0 -35 -1 -32 -32 3 -29 7 -33 35 -36
l32 -3 3 -140 3 -141 33 -29 c25 -23 42 -29 76 -29 57 0 76 8 76 30 0 39 -10
49 -44 43 -54 -9 -66 19 -66 154 l0 113 50 0 50 0 0 34 c0 34 -1 35 -47 38
l-48 3 -3 58 -3 57 -39 0 -40 0 0 -60z"/>
<path d="M5319 3247 c-64 -34 -102 -93 -107 -166 -7 -100 30 -171 111 -212 59
-31 159 -24 216 14 92 61 116 195 54 295 -55 89 -178 120 -274 69z m152 -62
c64 -34 91 -140 52 -206 -52 -87 -189 -71 -221 26 -42 124 63 235 169 180z"/>
<path d="M5885 3255 c-16 -9 -37 -24 -47 -35 -22 -27 -28 -25 -28 10 0 28 -3
30 -35 30 l-35 0 0 -203 0 -203 40 4 40 4 0 128 c0 123 1 130 26 159 47 57
143 58 173 3 6 -12 11 -78 11 -156 l0 -136 46 0 46 0 -4 158 c-3 175 -10 195
-71 232 -39 24 -119 26 -162 5z"/>
<path d="M6860 3259 c-81 -33 -130 -107 -130 -199 0 -127 84 -210 212 -210
133 1 216 94 206 231 -8 112 -94 190 -207 188 -31 0 -67 -5 -81 -10z m137 -79
c44 -26 66 -64 67 -113 1 -57 -20 -103 -59 -127 -113 -70 -234 53 -177 182 31
72 105 97 169 58z"/>
<path d="M7415 3259 c-11 -6 -32 -25 -47 -42 -25 -28 -28 -29 -28 -10 0 40
-11 53 -46 53 l-34 0 0 -200 0 -200 40 0 40 0 0 110 c0 124 12 168 56 196 15
10 44 19 65 19 35 0 38 2 43 34 3 19 3 38 0 43 -7 11 -65 10 -89 -3z"/>
<path d="M6250 3060 l0 -200 45 0 45 0 0 200 0 200 -45 0 -45 0 0 -200z"/>
</g>
</svg>
